<?xml version="1.0"?><svg data-name="Layer 3" id="Layer_3" viewBox="0 0 64 64" xmlns="http://www.w3.org/2000/svg"><rect height="34" style="fill:#698cb2" width="48" x="8" y="15"/><rect height="31" rx="1.645" style="fill:#d7e0ef" width="46" x="9" y="16"/><path d="M56,48l6,6a8,8,0,0,1-8,8H10a8,8,0,0,1-8-8H2l6-6Z" style="fill:#698cb2"/><polygon points="2 54 62 54 62 54 56 48 8 48 2 54" style="fill:#a5badb"/><polygon points="11 47 34 16 40 16 18 47 11 47" style="fill:#f2f5f9"/><polygon points="24 47 47 16 53 16 31 47 24 47" style="fill:#f2f5f9"/><polygon points="45.806 47 55 34.045 55 29.696 42.161 47 45.806 47" style="fill:#f2f5f9"/><polygon points="9 34.318 22 16 19 16 9 29.478 9 34.318" style="fill:#f2f5f9"/><rect height="13" style="fill:#f9cb5d" width="18" x="23" y="9"/><path d="M23,9v5a3,3,0,0,0,3-3,3,3,0,0,0,6,0,3,3,0,0,0,6,0,3,3,0,0,0,3,3V9Z" style="fill:#edb340"/><rect height="6" style="fill:#3693cf" width="4" x="30" y="16"/><path d="M20,9V8l3-6H41l3,6V9a3,3,0,0,1-6,0,3,3,0,0,1-6,0,3,3,0,0,1-6,0,3,3,0,0,1-6,0Z" style="fill:#d53e7a"/><polygon points="38 8 36 2 41 2 44 8 38 8" style="fill:#df5b90"/><polygon points="38 8 32 8 32 2 36 2 38 8" style="fill:#f769a3"/><polygon points="26 8 28 2 23 2 20 8 26 8" style="fill:#f769a3"/><path d="M32,8h6V9a3,3,0,0,1-3,3h0a3,3,0,0,1-3-3Z" style="fill:#f74d8b"/><path d="M20,8h6V9a3,3,0,0,1-3,3h0a3,3,0,0,1-3-3Z" style="fill:#f74d8b"/><polygon points="43 54 41 58 23 58 21 54 43 54" style="fill:#d7e0ef"/><polygon points="32 8 26 8 28 2 32 2 32 8" style="fill:#df5b90"/><path d="M46,43H18a3,3,0,0,1-3-3V30a3,3,0,0,1,3-3H46a3,3,0,0,1,3,3V40A3,3,0,0,1,46,43Z" style="fill:#e73844"/><path d="M23,30H19a1,1,0,0,0-1,1v8a1,1,0,0,0,1,1h4a3,3,0,0,0,2.234-5A3,3,0,0,0,23,30Zm0,8H20V36h3a1,1,0,0,1,0,2Zm0-4H20V32h3a1,1,0,0,1,0,2Z" style="fill:#fff"/><path d="M34,36a2,2,0,0,1-4,0V30H28v6a4,4,0,0,0,8,0V30H34Z" style="fill:#fff"/><path d="M44,30v3.465L42,34.8l-2-1.333V30H38v4a1,1,0,0,0,.445.832L41,36.535V40h2V36.535l2.555-1.7A1,1,0,0,0,46,34V30Z" style="fill:#fff"/></svg>